<?xml version="1.0" standalone="no"?>
<!DOCTYPE svg PUBLIC "-//W3C//DTD SVG 20010904//EN"
 "http://www.w3.org/TR/2001/REC-SVG-20010904/DTD/svg10.dtd">
<svg version="1.0" xmlns="http://www.w3.org/2000/svg"
 width="150.000000pt" height="150.000000pt" viewBox="0 0 150.000000 150.000000"
 preserveAspectRatio="xMidYMid meet">
<metadata>
Created by potrace 1.14, written by Peter Selinger 2001-2017
</metadata>
<g transform="translate(0.000000,150.000000) scale(0.100000,-0.100000)"
fill="#000000" stroke="none">
<path d="M1137 1123 c-4 -3 -7 -21 -7 -40 0 -18 -4 -33 -10 -33 -5 0 -10 -11
-10 -25 0 -14 5 -25 10 -25 6 0 10 -16 10 -35 0 -70 39 -115 99 -115 26 0 31
4 31 25 0 21 -5 25 -30 25 -34 0 -53 26 -48 68 3 23 8 27 41 30 32 3 37 7 37
28 0 21 -4 24 -40 24 l-40 0 0 40 c0 32 -4 40 -18 40 -10 0 -22 -3 -25 -7z"/>
<path d="M260 986 l0 -136 25 0 c20 0 25 5 25 25 0 21 5 25 30 25 23 0 33 -6
40 -25 7 -18 17 -25 35 -25 27 0 31 10 15 41 -8 15 -6 26 12 49 34 47 31 102
-9 141 -27 28 -39 32 -102 37 l-71 5 0 -137z m138 62 c7 -7 12 -24 12 -38 0
-36 -17 -50 -62 -50 l-38 0 0 50 0 50 38 0 c21 0 43 -5 50 -12z"/>
<path d="M543 1046 c-40 -18 -53 -43 -53 -99 0 -35 6 -50 26 -71 32 -31 90
-35 130 -10 23 16 24 18 8 35 -12 14 -21 16 -35 9 -38 -21 -40 -8 -3 38 20 26
42 52 46 59 6 8 1 17 -14 27 -36 23 -70 27 -105 12z m25 -87 c-22 -30 -23 -30
-26 -8 -3 15 4 30 19 42 32 26 36 6 7 -34z"/>
<path d="M742 1045 c-66 -29 -78 -139 -19 -180 25 -17 79 -20 108 -4 15 7 24
7 35 -2 12 -10 14 3 14 91 0 85 -2 101 -14 91 -10 -8 -20 -8 -42 4 -35 18 -40
18 -82 0z m86 -89 c4 -35 -14 -56 -48 -56 -51 0 -64 81 -17 100 30 11 61 -10
65 -44z"/>
<path d="M976 1045 c-35 -19 -53 -41 -60 -78 -7 -35 16 -92 42 -106 31 -17 94
-13 120 7 l23 18 -21 19 c-16 14 -23 16 -32 7 -35 -35 -102 14 -79 57 18 34
42 41 73 23 22 -12 30 -13 42 -3 21 17 11 37 -29 55 -41 20 -43 20 -79 1z"/>
<path d="M234 635 c-11 -28 4 -45 41 -45 l35 0 0 -105 0 -105 30 0 30 0 0 104
0 105 38 3 c32 3 37 6 37 28 0 25 -1 25 -103 28 -85 2 -103 0 -108 -13z"/>
<path d="M667 643 c-4 -3 -7 -65 -7 -136 l0 -129 70 4 c60 3 73 7 100 33 101
97 28 235 -125 235 -17 0 -35 -3 -38 -7z m130 -75 c46 -44 21 -122 -44 -134
l-33 -6 0 81 0 81 27 0 c15 0 37 -10 50 -22z"/>
<path d="M967 604 c-4 -4 -7 -19 -7 -34 0 -19 -7 -30 -25 -38 -15 -7 -25 -20
-25 -32 0 -12 10 -25 25 -32 18 -8 25 -19 25 -39 0 -36 13 -43 47 -26 24 13
30 13 50 0 28 -19 43 -10 43 28 0 22 7 32 25 41 32 14 32 45 1 60 -17 7 -26
20 -28 42 -3 27 -7 31 -28 28 -42 -5 -54 -4 -75 3 -11 3 -24 3 -28 -1z m40
-15 c16 -16 5 -39 -18 -39 -14 0 -19 7 -19 25 0 26 18 33 37 14z m83 -14 c0
-27 -21 -33 -39 -12 -8 10 -7 17 1 25 20 20 38 14 38 -13z m-108 -47 c-14 -14
-16 -48 -3 -48 5 0 11 14 15 30 5 25 10 30 36 30 26 0 31 -5 37 -30 6 -34 23
-41 23 -10 0 11 -4 20 -10 20 -5 0 -10 5 -10 12 0 9 3 9 11 1 6 -6 17 -9 24
-7 6 3 18 -2 25 -11 15 -18 4 -35 -26 -39 -15 -2 -18 -10 -16 -39 4 -40 1 -42
-28 -27 -21 11 -17 40 6 40 8 0 11 6 8 15 -5 11 -10 12 -25 2 -15 -9 -23 -9
-38 0 -15 10 -20 9 -25 -2 -3 -9 0 -15 8 -15 23 0 27 -29 6 -40 -29 -15 -32
-13 -28 27 2 29 -1 37 -16 39 -30 4 -41 21 -26 39 7 9 19 14 26 11 7 -3 16 -1
19 4 4 6 9 10 13 10 3 0 1 -5 -6 -12z"/>
<path d="M1010 500 c0 -13 7 -20 20 -20 13 0 20 7 20 20 0 13 -7 20 -20 20
-13 0 -20 -7 -20 -20z"/>
<path d="M494 580 c-36 -14 -64 -59 -64 -102 0 -85 102 -130 167 -74 24 21 28
32 28 75 0 41 -5 55 -25 75 -28 27 -75 39 -106 26z m66 -60 c22 -22 25 -42 10
-71 -12 -22 -59 -26 -78 -7 -20 20 -14 65 10 82 29 20 34 20 58 -4z"/>
</g>
</svg>
