<svg width="145" height="25" viewBox="0 0 145 25" fill="none" xmlns="http://www.w3.org/2000/svg">
<path d="M13.952 24.544C12.288 24.544 11.456 23.8293 11.456 22.4C11.456 21.9307 11.52 21.3973 11.648 20.8C11.7973 20.1813 12 19.392 12.256 18.432C12.5547 17.4293 12.7787 16.576 12.928 15.872C13.0773 15.168 13.152 14.5387 13.152 13.984C13.152 12.5333 12.512 11.808 11.232 11.808C10.8907 11.808 10.5387 11.8507 10.176 11.936L7.616 24H3.008L7.36 3.648L12.096 3.008L10.528 10.4H10.784C11.616 10.4 12.384 10.112 13.088 9.536C13.792 8.96 14.336 8.24533 14.72 7.392C15.1253 6.51733 15.328 5.664 15.328 4.832C15.328 3.85067 15.0293 3.05067 14.432 2.432C13.856 1.792 12.9813 1.472 11.808 1.472C10.08 1.472 8.56533 1.78133 7.264 2.4C5.96267 3.01867 4.94933 3.91467 4.224 5.088C3.52 6.26133 3.168 7.648 3.168 9.248C3.168 10.0373 3.24267 10.592 3.392 10.912C3.54133 11.2107 3.616 11.3813 3.616 11.424C2.464 11.424 1.6 11.1893 1.024 10.72C0.469333 10.2293 0.192 9.42933 0.192 8.32C0.192 6.95467 0.746667 5.632 1.856 4.352C2.98667 3.05067 4.42667 2.00533 6.176 1.216C7.92533 0.405332 9.67467 -1.90735e-06 11.424 -1.90735e-06C13.024 -1.90735e-06 14.368 0.234665 15.456 0.703999C16.544 1.17333 17.3547 1.80267 17.888 2.592C18.4213 3.36 18.688 4.20267 18.688 5.12C18.688 6.12267 18.3787 7.12533 17.76 8.128C17.1413 9.13067 16.2987 9.952 15.232 10.592C16.0427 10.8267 16.608 11.2213 16.928 11.776C17.2693 12.3093 17.44 12.9813 17.44 13.792C17.44 14.4107 17.3653 15.072 17.216 15.776C17.0667 16.4587 16.8533 17.312 16.576 18.336C16.4053 18.9973 16.2453 19.648 16.096 20.288C15.9467 20.928 15.872 21.4613 15.872 21.888C15.872 22.3787 15.9787 22.816 16.192 23.2C16.4267 23.584 16.736 23.8507 17.12 24C15.8187 24.3627 14.7627 24.544 13.952 24.544ZM23.7948 24.192C22.2161 24.192 20.9894 23.7867 20.1148 22.976C19.2401 22.144 18.8027 20.8533 18.8027 19.104C18.8027 17.632 19.0907 16.0107 19.6668 14.24C20.2428 12.4693 21.1814 10.944 22.4828 9.664C23.7841 8.36267 25.4374 7.712 27.4427 7.712C29.7894 7.712 30.9628 8.736 30.9628 10.784C30.9628 11.9787 30.6214 13.0773 29.9388 14.08C29.2561 15.0827 28.3494 15.8933 27.2188 16.512C26.0881 17.1093 24.8828 17.4507 23.6028 17.536C23.5601 18.176 23.5388 18.6027 23.5388 18.816C23.5388 19.8613 23.7201 20.576 24.0828 20.96C24.4454 21.3227 25.0321 21.504 25.8428 21.504C26.9948 21.504 27.9761 21.2373 28.7868 20.704C29.6188 20.1707 30.5254 19.36 31.5068 18.272H32.5948C30.2268 22.2187 27.2934 24.192 23.7948 24.192ZM23.8588 16C24.6481 15.9573 25.3948 15.68 26.0988 15.168C26.8241 14.656 27.4001 14.0053 27.8268 13.216C28.2748 12.4267 28.4988 11.5947 28.4988 10.72C28.4988 9.84533 28.2321 9.408 27.6988 9.408C26.9308 9.408 26.1734 10.08 25.4268 11.424C24.7014 12.768 24.1788 14.2933 23.8588 16ZM35.34 24.192C34.124 24.192 33.1107 23.776 32.3 22.944C31.4893 22.112 31.084 20.8107 31.084 19.04C31.084 17.4613 31.3933 15.808 32.012 14.08C32.652 12.3307 33.5907 10.8587 34.828 9.664C36.0867 8.448 37.58 7.84 39.308 7.84C40.1827 7.84 40.8333 7.98933 41.26 8.288C41.6867 8.58667 41.9 8.98133 41.9 9.472V9.696L42.252 8H46.86L44.556 18.88C44.4707 19.2 44.428 19.5413 44.428 19.904C44.428 20.8213 44.8653 21.28 45.74 21.28C46.3373 21.28 46.8493 21.0027 47.276 20.448C47.724 19.8933 48.076 19.168 48.332 18.272H49.676C48.8867 20.576 47.9053 22.144 46.732 22.976C45.58 23.7867 44.4173 24.192 43.244 24.192C42.348 24.192 41.6227 23.9467 41.068 23.456C40.5347 22.944 40.2147 22.208 40.108 21.248C39.4893 22.1227 38.796 22.8373 38.028 23.392C37.2813 23.9253 36.3853 24.192 35.34 24.192ZM37.42 21.088C37.9533 21.088 38.476 20.8427 38.988 20.352C39.5213 19.84 39.884 19.1467 40.076 18.272L41.612 11.04C41.612 10.7627 41.5053 10.496 41.292 10.24C41.0787 9.96267 40.748 9.824 40.3 9.824C39.4467 9.824 38.6787 10.3253 37.996 11.328C37.3133 12.3093 36.78 13.504 36.396 14.912C36.012 16.2987 35.82 17.5253 35.82 18.592C35.82 19.6587 35.9693 20.3413 36.268 20.64C36.588 20.9387 36.972 21.088 37.42 21.088ZM52.9198 24.192C51.3411 24.192 50.1144 23.7867 49.2398 22.976C48.3651 22.144 47.9277 20.8533 47.9277 19.104C47.9277 17.632 48.2157 16.0107 48.7918 14.24C49.3891 12.4693 50.3278 10.944 51.6078 9.664C52.9091 8.36267 54.5518 7.712 56.5358 7.712C57.8158 7.712 58.7224 7.98933 59.2558 8.544C59.8104 9.09867 60.0878 9.80267 60.0878 10.656C60.0878 11.4027 59.9278 11.9787 59.6078 12.384C59.2878 12.7893 58.8824 12.992 58.3918 12.992C58.0291 12.992 57.6558 12.864 57.2718 12.608C57.5278 11.904 57.6558 11.2747 57.6558 10.72C57.6558 10.3147 57.5811 9.99467 57.4318 9.76C57.2824 9.52533 57.0584 9.408 56.7598 9.408C56.1198 9.408 55.4798 9.93067 54.8398 10.976C54.1998 12.0213 53.6771 13.2907 53.2718 14.784C52.8664 16.2773 52.6638 17.6213 52.6638 18.816C52.6638 19.8613 52.8451 20.576 53.2078 20.96C53.5704 21.3227 54.1571 21.504 54.9678 21.504C56.1198 21.504 57.1011 21.2373 57.9118 20.704C58.7438 20.1707 59.6504 19.36 60.6318 18.272H61.7198C59.3518 22.2187 56.4184 24.192 52.9198 24.192ZM63.633 24.192C62.545 24.192 61.7343 23.8613 61.201 23.2C60.689 22.5387 60.433 21.664 60.433 20.576C60.433 20.0213 60.497 19.456 60.625 18.88L62.673 9.28H61.617L61.873 8H62.929L63.889 3.584L68.625 2.944C68.433 3.75467 68.3263 4.23467 68.305 4.384C68.1557 4.98133 67.8997 6.18667 67.537 8H69.457L69.201 9.28H67.281L65.233 18.88C65.1263 19.3493 65.073 19.7227 65.073 20C65.073 20.768 65.4463 21.152 66.193 21.152C66.577 21.152 66.8543 21.12 67.025 21.056C66.5983 22.2933 66.097 23.1253 65.521 23.552C64.945 23.9787 64.3157 24.192 63.633 24.192ZM85.9743 2.816H85.5903C83.6916 2.816 82.2089 3.296 81.1423 4.256C80.0969 5.19467 79.5743 6.86933 79.5743 9.28C79.5743 10.0693 79.6489 10.624 79.7983 10.944C79.9476 11.2427 80.0223 11.4133 80.0223 11.456C78.8703 11.456 78.0063 11.2213 77.4303 10.752C76.8756 10.2613 76.5983 9.46133 76.5983 8.352C76.5983 6.83733 76.9716 5.46133 77.7183 4.224C78.4649 2.96533 79.6489 1.952 81.2703 1.184C82.9129 0.415999 84.9929 0.0319996 87.5103 0.0319996C88.9183 0.0319996 90.4329 0.159999 92.0543 0.415998C93.4196 0.650666 94.6356 0.768 95.7023 0.768C97.0676 0.768 98.3049 0.543999 99.4143 0.0959988C99.3716 1.48267 99.0196 2.50667 98.3583 3.168C97.6969 3.82933 96.7156 4.16 95.4143 4.16C94.7316 4.16 94.0489 4.10667 93.3663 4C92.6836 3.89333 91.7129 3.712 90.4543 3.456L86.0383 24H81.4303L85.9743 2.816ZM96.4845 24.128C94.9058 24.128 93.6578 23.7227 92.7405 22.912C91.8232 22.1013 91.3645 20.8213 91.3645 19.072C91.3645 17.6 91.6525 15.9893 92.2285 14.24C92.8045 12.4693 93.7432 10.944 95.0445 9.664C96.3458 8.36267 98.0098 7.712 100.036 7.712C102.554 7.712 103.909 9.152 104.101 12.032C104.57 11.9253 104.986 11.6693 105.349 11.264C105.711 10.8373 106.053 10.3573 106.373 9.824H107.397C106.821 10.976 106.309 11.8827 105.861 12.544C105.413 13.184 104.826 13.7067 104.101 14.112C103.973 16.1173 103.557 17.8773 102.853 19.392C102.17 20.9067 101.274 22.08 100.165 22.912C99.0552 23.7227 97.8285 24.128 96.4845 24.128ZM97.7645 21.248C98.5538 21.248 99.2898 20.608 99.9725 19.328C100.655 18.048 101.125 16.4693 101.381 14.592C100.869 14.4 100.613 13.92 100.613 13.152C100.613 12.32 100.911 11.7653 101.509 11.488C101.466 10.8053 101.349 10.336 101.157 10.08C100.986 9.80267 100.698 9.664 100.293 9.664C99.5885 9.664 98.9165 10.176 98.2765 11.2C97.6365 12.2027 97.1138 13.4293 96.7085 14.88C96.3245 16.3093 96.1325 17.568 96.1325 18.656C96.1325 19.68 96.2498 20.3733 96.4845 20.736C96.7192 21.0773 97.1458 21.248 97.7645 21.248ZM119.182 24.416C117.902 24.416 116.601 23.8507 115.278 22.72L115.022 24H110.414L114.766 3.648L119.502 3.008L115.662 20.96C116.26 21.3867 116.868 21.6 117.486 21.6C118.702 21.6 119.769 20.896 120.686 19.488C121.625 18.08 122.35 16.288 122.862 14.112C123.374 11.936 123.63 9.73867 123.63 7.52C123.63 5.42933 123.214 3.904 122.382 2.944C121.572 1.96266 120.43 1.472 118.958 1.472C117.358 1.472 115.918 1.792 114.638 2.432C113.38 3.05067 112.388 3.94667 111.662 5.12C110.937 6.29333 110.574 7.66933 110.574 9.248C110.574 10.0373 110.649 10.592 110.798 10.912C110.948 11.2107 111.022 11.3813 111.022 11.424C109.913 11.424 109.06 11.1893 108.462 10.72C107.886 10.2507 107.598 9.49333 107.598 8.448C107.598 6.99733 108.142 5.62133 109.23 4.32C110.318 3.01867 111.769 1.97333 113.582 1.184C115.417 0.394665 117.39 -1.90735e-06 119.502 -1.90735e-06C122.425 -1.90735e-06 124.58 0.863998 125.966 2.592C127.353 4.32 128.046 6.528 128.046 9.216C128.046 11.648 127.63 14.048 126.798 16.416C125.988 18.7627 124.9 20.6827 123.534 22.176C122.169 23.6693 120.718 24.416 119.182 24.416ZM133.297 24.128C131.718 24.128 130.47 23.7227 129.553 22.912C128.636 22.1013 128.177 20.8213 128.177 19.072C128.177 17.6 128.465 15.9893 129.041 14.24C129.617 12.4693 130.556 10.944 131.857 9.664C133.158 8.36267 134.822 7.712 136.849 7.712C139.366 7.712 140.721 9.152 140.913 12.032C141.382 11.9253 141.798 11.6693 142.161 11.264C142.524 10.8373 142.865 10.3573 143.185 9.824H144.209C143.633 10.976 143.121 11.8827 142.673 12.544C142.225 13.184 141.638 13.7067 140.913 14.112C140.785 16.1173 140.369 17.8773 139.665 19.392C138.982 20.9067 138.086 22.08 136.977 22.912C135.868 23.7227 134.641 24.128 133.297 24.128ZM134.577 21.248C135.366 21.248 136.102 20.608 136.785 19.328C137.468 18.048 137.937 16.4693 138.193 14.592C137.681 14.4 137.425 13.92 137.425 13.152C137.425 12.32 137.724 11.7653 138.321 11.488C138.278 10.8053 138.161 10.336 137.969 10.08C137.798 9.80267 137.51 9.664 137.105 9.664C136.401 9.664 135.729 10.176 135.089 11.2C134.449 12.2027 133.926 13.4293 133.521 14.88C133.137 16.3093 132.945 17.568 132.945 18.656C132.945 19.68 133.062 20.3733 133.297 20.736C133.532 21.0773 133.958 21.248 134.577 21.248Z" fill="black"/>
</svg>
